# https://github.com/mikedh/trimesh
v 0.00172926 0.07772485 -0.01166167
v 0.00032370 0.07806140 -0.01131380
v 0.00049332 0.07799536 -0.01102481
v 0.00186181 0.07749597 -0.01127469
v -0.01706891 0.02141785 0.00719359
v -0.02466669 0.00640503 0.00676557
v -0.02333229 0.02455273 0.00359037
v -0.01824661 0.02915479 0.00289064
v -0.01091160 0.05451648 -0.00424772
v -0.01349310 0.05245764 -0.00798227
v -0.02026941 0.02533923 0.00105745
v -0.01510068 0.03115381 0.00487843
v -0.03106937 0.01477039 0.02150938
v -0.02033493 0.06214502 -0.00048055
v -0.02027548 0.06174939 -0.00187308
v -0.02966249 0.01674158 0.01172930
v -0.01937358 0.06103333 -0.00327687
v -0.01455529 0.00000000 -0.00370621
v -0.02550689 0.00000000 0.00836705
v -0.00891920 0.00721802 -0.01068051
v -0.00905654 0.00000000 -0.00956311
v -0.02728796 0.00000000 0.01278453
v -0.03036069 0.00000000 0.01767277
v 0.03650489 0.00391418 -0.01103720
v 0.02774836 0.02392896 -0.01847417
v 0.02796236 0.02836902 -0.01415714
v 0.03724494 0.00678589 -0.00375187
v -0.01817276 0.06111865 -0.00334309
v 0.01798913 0.00000000 -0.01931390
v 0.01732155 0.00583069 -0.02015275
v 0.03873316 0.00000000 -0.00954599
v 0.00960593 0.01880066 -0.01059467
v 0.01615109 0.01836572 -0.00225124
v 0.01511655 0.03673621 -0.01694502
v 0.00881634 0.03011121 0.00638954
v 0.00490869 0.05280420 -0.00431100
v -0.00689592 0.05547852 -0.00172030
v -0.00888276 0.03342725 0.00895098
v -0.03083948 0.00000000 0.02095465
v -0.03102375 0.00000000 0.02823636
v 0.03225841 0.00961047 -0.00028827
v 0.02469897 0.03207642 -0.01314728
v 0.00574677 0.04870886 -0.01296705
v 0.00190418 0.04700110 -0.01698790
v 0.00177487 0.07701892 -0.01211378
v 0.00199029 0.07714465 -0.01178535
v -0.02302230 0.02629028 0.02198002
v -0.01940770 0.06261401 -0.00078704
v -0.01999918 0.06210193 0.00031339
v -0.02642560 0.02091687 0.02477745
v 0.00126584 0.00000000 0.01258285
v 0.00330326 0.00000000 0.01013225
v 0.00447892 0.00915137 0.01309173
v -0.00285742 0.00469458 0.01978586
v -0.00263882 0.00000000 0.01790653
v 0.00943680 0.02397046 -0.00991867
v 0.01190227 0.02660413 -0.00114220
v 0.01414752 0.01813562 0.00173735
v 0.00984562 0.01888696 -0.01035382
v -0.01765836 0.06139014 -0.00228013
v -0.01831510 0.06175000 -0.00100332
v -0.01714388 0.03199707 0.01505690
v -0.01517488 0.03306592 0.01046961
v 0.01039381 0.03497424 -0.02016818
v 0.01069339 0.03106445 -0.02398359
v 0.00920315 0.01146997 -0.01718465
v 0.02757480 0.06138013 -0.03151582
v 0.02770601 0.06163635 -0.03100727
v -0.01988921 0.02991309 0.01878701
v -0.01438810 0.01288440 0.02849391
v -0.01111155 0.01652185 0.02280189
v 0.02301115 0.00000000 0.01260828
v 0.02795016 0.00000000 0.00912918
v 0.01998669 0.00886633 0.00752096
v 0.01646814 0.00471741 0.01337701
v 0.02089477 0.00000000 0.01364282
v -0.02958061 0.01667908 0.02453675
v -0.02902648 0.00000000 0.03362617
v -0.02472479 0.00000000 0.03905827
v -0.02423393 0.00000000 0.03949786
v -0.00434723 0.04630652 -0.01864875
v 0.00143555 0.07733020 -0.01212091
v -0.00159236 0.01136108 0.02278044
v 0.00718516 0.01532703 0.01586968
v 0.00927881 0.02265259 0.01067401
v -0.00246955 0.01985095 0.01910424
v -0.00755931 0.01988379 -0.01411880
v 0.00265478 0.02035229 -0.01524806
v 0.00209002 0.07713904 -0.01145391
v 0.00696165 0.05070923 -0.00837703
v 0.02680765 0.06395325 -0.03145855
v 0.02736971 0.06372754 -0.03132292
v 0.02761014 0.06392871 -0.03181703
v -0.01498358 0.03250439 0.00592649
v -0.01025860 0.02390735 0.01375909
v 0.01443131 0.00000000 -0.01779596
v 0.00493688 0.00691394 -0.01507759
v 0.01651174 0.00000000 -0.01856667
v 0.01589865 0.02744910 -0.02535720
v 0.02771423 0.06282129 -0.03141339
v -0.02593197 0.00000000 0.01067322
v -0.01755489 0.06076392 -0.00277252
v -0.01840832 0.06214050 -0.00303617
v 0.02392339 0.01515991 -0.00033412
v 0.02659732 0.00738306 0.00434435
v 0.03456820 0.00000000 0.00497413
v 0.03720871 0.00000000 0.00351973
v 0.02019020 0.03542004 -0.01442405
v -0.03047166 0.00000000 0.02967567
v -0.01791381 0.01058093 0.03182821
v -0.01898416 0.06286108 -0.00197655
v 0.00012194 0.07789795 -0.01162845
v 0.03283813 0.00000000 0.00611491
v 0.03864974 0.00000000 0.00164978
v 0.04132783 0.00000000 -0.00198668
v -0.01947027 0.06287488 -0.00105713
v -0.01808095 0.00000000 0.03893888
v -0.01433993 0.00000000 0.03724797
v -0.01872278 0.00000000 0.03926745
v -0.00977186 0.00034973 0.03398057
v -0.00958692 0.00000000 0.03405908
v -0.00483458 0.00000000 0.03109663
v 0.02715581 0.06314636 -0.03217101
v -0.02318752 0.00000000 0.03950255
v -0.02070888 0.00847461 0.03355355
v 0.02679986 0.06400598 -0.03188144
v 0.02661912 0.06343274 -0.03216032
v 0.01334376 0.00000000 0.01253766
v 0.01423780 0.00000000 0.01260201
v -0.01029376 0.00000000 0.03456512
v -0.00975611 0.00000000 0.03416993
v 0.03985589 0.00000000 -0.00677752
v -0.00448131 0.00000000 0.02673231
v -0.00363499 0.00000000 0.02328108
v -0.00343389 0.00000000 0.02077194
v -0.01942055 0.00000000 0.03933221
v 0.01064975 0.00000000 -0.01659225
v -0.01387711 0.00000000 0.03679491
f 1 2 3
f 1 3 4
f 5 6 7
f 5 7 8
f 9 10 11
f 9 11 12
f 13 14 15
f 13 15 16
f 16 15 17
f 16 17 7
f 18 19 6
f 6 20 21
f 18 6 21
f 6 22 23
f 23 16 7
f 23 7 6
f 24 25 26
f 24 26 27
f 7 17 28
f 7 28 8
f 29 30 24
f 29 24 31
f 12 11 6
f 12 6 5
f 32 33 34
f 35 36 37
f 35 37 38
f 39 40 13
f 13 16 23
f 39 13 23
f 41 27 26
f 41 26 42
f 43 44 45
f 43 45 46
f 47 48 49
f 47 49 50
f 51 52 53
f 53 54 55
f 53 55 51
f 56 57 58
f 56 58 59
f 60 61 62
f 60 62 63
f 32 64 65
f 32 65 66
f 67 68 26
f 67 26 25
f 69 62 61
f 4 3 37
f 4 37 36
f 63 62 70
f 63 70 71
f 72 73 74
f 74 75 76
f 74 76 72
f 50 77 78
f 78 79 80
f 78 80 50
f 59 58 32
f 32 58 33
f 44 81 82
f 44 82 45
f 83 84 85
f 83 85 86
f 87 81 44
f 87 44 88
f 89 4 36
f 89 36 90
f 50 49 14
f 50 14 77
f 91 92 93
f 13 77 14
f 4 89 46
f 4 46 1
f 94 63 71
f 94 71 95
f 96 97 66
f 66 30 29
f 29 98 96
f 66 29 96
f 30 99 25
f 30 25 24
f 11 87 20
f 11 20 6
f 68 100 42
f 68 42 26
f 38 95 86
f 86 85 35
f 86 35 38
f 22 6 101
f 6 19 101
f 60 102 28
f 60 28 103
f 90 43 46
f 90 46 89
f 104 105 106
f 106 107 41
f 106 41 104
f 104 41 42
f 104 42 108
f 109 78 77
f 77 13 40
f 109 77 40
f 70 62 69
f 70 69 110
f 111 61 60
f 111 60 103
f 92 91 34
f 92 34 108
f 58 74 33
f 30 66 65
f 30 65 99
f 48 47 69
f 48 69 61
f 1 82 112
f 1 112 2
f 81 87 11
f 81 11 10
f 113 106 105
f 105 74 73
f 105 73 113
f 112 82 81
f 112 81 10
f 114 115 27
f 27 41 107
f 27 107 114
f 116 48 61
f 116 61 111
f 117 118 70
f 70 110 119
f 117 70 119
f 94 102 60
f 94 60 63
f 86 120 121
f 121 122 83
f 121 83 86
f 45 82 1
f 45 1 46
f 56 43 90
f 56 90 57
f 99 123 67
f 99 67 25
f 33 104 108
f 33 108 34
f 80 124 125
f 125 47 50
f 125 50 80
f 65 64 126
f 65 126 127
f 128 53 52
f 9 2 112
f 9 112 10
f 28 102 94
f 28 94 8
f 116 111 15
f 116 15 14
f 104 33 74
f 104 74 105
f 85 74 58
f 88 56 59
f 88 59 97
f 12 38 37
f 12 37 9
f 84 75 74
f 84 74 85
f 76 75 129
f 123 93 67
f 86 95 71
f 86 71 120
f 110 69 47
f 110 47 125
f 128 129 75
f 75 84 53
f 75 53 128
f 123 127 126
f 123 126 93
f 92 100 93
f 56 88 44
f 56 44 43
f 17 103 28
f 130 131 120
f 115 132 31
f 31 24 27
f 31 27 115
f 111 103 17
f 111 17 15
f 57 90 36
f 57 36 35
f 3 2 9
f 3 9 37
f 122 133 134
f 134 54 83
f 134 83 122
f 87 88 97
f 87 97 20
f 55 54 134
f 55 134 135
f 57 35 85
f 57 85 58
f 42 100 92
f 42 92 108
f 65 127 123
f 65 123 99
f 116 14 49
f 116 49 48
f 131 121 120
f 38 12 5
f 38 5 95
f 110 125 124
f 124 136 119
f 124 119 110
f 137 21 20
f 20 97 96
f 137 20 96
f 34 91 126
f 34 126 64
f 94 95 5
f 94 5 8
f 32 66 97
f 32 97 59
f 138 130 120
f 120 71 70
f 70 118 138
f 120 70 138
f 53 84 83
f 53 83 54
f 64 32 34
f 67 93 100
f 67 100 68
f 91 93 126
f 80 79 78
f 109 40 39
f 80 78 109
f 136 124 80
f 117 119 136
f 138 118 117
f 131 130 138
f 133 122 121
f 121 131 138
f 138 117 136
f 136 80 109
f 109 39 23
f 23 22 101
f 101 19 18
f 18 21 137
f 18 137 96
f 23 101 18
f 136 109 23
f 121 138 136
f 134 133 121
f 135 134 121
f 121 136 23
f 23 18 96
f 98 29 31
f 23 96 98
f 135 121 23
f 55 135 23
f 23 98 31
f 31 132 115
f 115 114 107
f 106 113 73
f 115 107 106
f 23 31 115
f 51 55 23
f 129 128 52
f 52 51 23
f 115 106 73
f 73 72 76
f 76 129 52
f 52 23 115
f 115 73 76
f 115 76 52

